<svg width="65" height="89" viewBox="0 0 65 89" fill="none" xmlns="http://www.w3.org/2000/svg">
<path d="M47.0052 23.2432C47.0052 23.2432 51.0289 24.2541 52.4952 17.9092C53.9614 11.5643 54.4058 1.59376 59.2883 1.93351C64.1705 2.27375 65.0764 9.86462 61.1276 17.3425C57.1793 24.8206 49.0878 25.72 49.0878 25.72L47.0052 23.2432Z" fill="#F1BDBC" stroke="black" stroke-width="2" stroke-miterlimit="10"/>
<path d="M17.594 23.2432C17.594 23.2432 13.5703 24.2541 12.1041 17.9092C10.6379 11.5643 10.1937 1.59376 5.31122 1.93351C0.428513 2.27375 -0.477105 9.86462 3.47141 17.3425C7.41993 24.8206 15.5115 25.72 15.5115 25.72L17.594 23.2432Z" fill="#F1BDBC" stroke="black" stroke-width="2" stroke-miterlimit="10"/>
<path d="M34.2632 76.3481C32.9317 71.0228 33.7086 62.5251 33.7086 62.5251H31.7111H29.7135C29.7135 62.5251 30.4907 71.0228 29.1589 76.3481C27.8271 81.6732 28.2708 87.2243 31.7111 87.678C35.1516 87.2243 35.595 81.6729 34.2632 76.3481Z" fill="#E5D8CC" stroke="black" stroke-width="2" stroke-miterlimit="10"/>
<path d="M37.6203 60.0853C37.3706 60.0003 37.3706 64.8439 39.4515 69.3476C41.5323 73.8512 45.3608 77.1653 44.362 80.8193C43.3633 84.4731 38.4198 81.2105 36.9545 72.1518C35.4893 63.0935 35.7894 60.6802 35.7894 60.6802L37.6203 60.0853Z" fill="#E5D8CC" stroke="black" stroke-width="2" stroke-miterlimit="10"/>
<path d="M42.0316 58.6179C42.0316 58.6179 42.0316 62.8897 45.444 67.1384C48.8567 71.3871 51.2703 73.8513 51.2703 76.9955C51.2703 80.1394 47.1921 80.3943 46.6512 76.9955C46.11 73.5964 43.7797 70.4524 42.0316 66.3736C40.284 62.2948 40.1448 59.066 40.1448 59.066L42.0316 58.6179Z" fill="#E5D8CC" stroke="black" stroke-width="2" stroke-miterlimit="10"/>
<path d="M43.8628 56.0061C43.8628 56.0061 44.6952 59.4419 49.9385 62.5253C55.1821 65.6091 61.6741 66.0013 61.0912 69.0344C60.5087 72.0675 48.1909 68.1715 43.8628 59.6243V56.0061Z" fill="#E5D8CC" stroke="black" stroke-width="2" stroke-miterlimit="10"/>
<path d="M26.2296 60.0853C26.4795 60.0003 26.4795 64.8439 24.3987 69.3476C22.3178 73.8512 18.4893 77.1653 19.4881 80.8193C20.4869 84.4731 25.4304 81.2105 26.8956 72.1518C28.3611 63.0935 28.061 60.6802 28.061 60.6802L26.2296 60.0853Z" fill="#E5D8CC" stroke="black" stroke-width="2" stroke-miterlimit="10"/>
<path d="M21.8183 58.6179C21.8183 58.6179 21.8183 62.8897 18.406 67.1384C14.9936 71.3871 12.58 73.8513 12.58 76.9955C12.58 80.1394 16.6581 80.3943 17.1993 76.9955C17.7404 73.5964 20.0707 70.4524 21.8183 66.3736C23.5664 62.2948 23.7054 59.066 23.7054 59.066L21.8183 58.6179Z" fill="#E5D8CC" stroke="black" stroke-width="2" stroke-miterlimit="10"/>
<path d="M19.9876 56.0061C19.9876 56.0061 19.1555 59.4419 13.9116 62.5253C8.6683 65.6091 2.17649 66.0013 2.75871 69.0344C3.34141 72.0675 15.6595 68.1715 19.9874 59.6243V56.0061H19.9876Z" fill="#E5D8CC" stroke="black" stroke-width="2" stroke-miterlimit="10"/>
<path d="M32.1273 63.375C44.0326 63.375 53.6837 52.9508 53.6837 40.0919C53.6837 27.233 44.0326 16.8088 32.1273 16.8088C20.2219 16.8088 10.5708 27.233 10.5708 40.0919C10.5708 52.9508 20.2219 63.375 32.1273 63.375Z" fill="#C2DBDB" stroke="black" stroke-width="2" stroke-miterlimit="10"/>
<path d="M41.2335 27.3677C35.4727 25.3008 32.1271 30.0682 32.1271 30.0682C32.1271 30.0682 28.7817 25.301 23.0209 27.3677C17.2602 29.4341 15.4965 37.2538 19.1711 41.3623C22.8459 45.4721 30.9967 45.1147 32.1271 48.5986C33.2574 45.1144 41.4085 45.4718 45.0831 41.3623C48.7579 37.2538 46.9942 29.4341 41.2335 27.3677Z" fill="#EDF4F4" stroke="black" stroke-width="2" stroke-miterlimit="10"/>
<path d="M24.1179 39.1316C26.0216 39.1316 27.5649 37.5559 27.5649 35.6122C27.5649 33.6685 26.0216 32.0928 24.1179 32.0928C22.2142 32.0928 20.6709 33.6685 20.6709 35.6122C20.6709 37.5559 22.2142 39.1316 24.1179 39.1316Z" fill="black"/>
<path d="M40.035 39.1316C41.9387 39.1316 43.4819 37.5559 43.4819 35.6122C43.4819 33.6685 41.9387 32.0928 40.035 32.0928C38.1313 32.0928 36.588 33.6685 36.588 35.6122C36.588 37.5559 38.1313 39.1316 40.035 39.1316Z" fill="black"/>
<path d="M55.8479 16.3228C55.8479 16.3228 57.2908 14.7368 57.7345 10.6581C58.1782 6.57925 58.844 5.67277 60.5088 7.03249C62.1733 8.39195 60.3974 14.0566 55.8479 16.3228Z" fill="black"/>
<path d="M8.75153 16.3228C8.75153 16.3228 7.30882 14.7368 6.8649 10.6581C6.42097 6.57946 5.7552 5.67273 4.09066 7.03245C2.42611 8.39216 4.20158 14.0566 8.75153 16.3228Z" fill="black"/>
</svg>
