<svg width="52" height="92" viewBox="0 0 52 92" fill="none" xmlns="http://www.w3.org/2000/svg">
<path d="M42.9771 46.0063C42.9771 46.0063 45.5965 48.3642 45.8827 56.0459C46.1682 63.7274 45.6921 75.2986 46.2638 77.0485C46.8354 78.7987 49.4068 79.3821 49.4068 80.2572C49.4068 81.1323 48.5494 81.7157 47.5017 81.2296C46.4539 80.7435 46.1199 81.5213 46.1917 82.591C46.2637 83.6603 44.3591 84.3412 43.9781 82.591C43.5971 80.8406 43.4042 80.3545 42.9771 80.5489C42.5495 80.7435 41.6924 81.7157 41.2161 80.4518C40.74 79.1877 41.5018 78.7016 42.1685 77.7292C42.8348 76.7568 43.2156 72.1872 42.9303 67.3254C42.6449 62.4636 43.3116 54.9765 42.3589 52.8375C41.4062 50.698 40.6425 46.5655 42.9771 46.0063Z" fill="#E5D8CC" stroke="black" stroke-width="2" stroke-miterlimit="10"/>
<path d="M10.1847 46.0063C10.1847 46.0063 7.56488 48.3642 7.27893 56.0459C6.99346 63.7274 7.46955 75.2986 6.89813 77.0485C6.32648 78.7987 3.75513 79.3821 3.75513 80.2572C3.75513 81.1323 4.61249 81.7157 5.66 81.2296C6.70751 80.7435 7.04194 81.5213 6.96968 82.591C6.89813 83.6603 8.80253 84.3412 9.18355 82.591C9.56482 80.8406 9.75711 80.3545 10.1847 80.5489C10.6123 80.7435 11.4692 81.7157 11.9455 80.4518C12.4219 79.1877 11.6601 78.7016 10.9931 77.7292C10.3269 76.7568 9.94631 72.1872 10.2315 67.3254C10.517 62.4636 9.85002 54.9765 10.8027 52.8375C11.7554 50.698 12.5191 46.5655 10.1847 46.0063Z" fill="#E5D8CC" stroke="black" stroke-width="2" stroke-miterlimit="10"/>
<path d="M18.591 48.6506C18.591 48.6506 21.9659 56.8995 22.1517 63.8795C22.3373 70.8594 20.7835 82.2809 17.5204 84.6603C14.2576 87.04 11.7717 87.9916 12.7038 89.8952C13.636 91.7988 25.5999 90.6882 25.5999 86.8812C25.5999 83.0741 25.5999 53.0923 25.5999 53.0923C25.5999 53.0923 21.3705 47.0647 18.591 48.6506Z" fill="#E5D8CC" stroke="black" stroke-width="2" stroke-miterlimit="10"/>
<path d="M32.6091 48.6506C32.6091 48.6506 29.2342 56.8995 29.0486 63.8795C28.863 70.8594 30.4168 82.2809 33.6799 84.6603C36.9427 87.04 39.4284 87.9916 38.4966 89.8952C37.5638 91.7988 25.5999 90.6882 25.5999 86.8812C25.5999 83.0741 25.5999 53.0923 25.5999 53.0923C25.5999 53.0923 29.8301 47.0647 32.6091 48.6506Z" fill="#E5D8CC" stroke="black" stroke-width="2" stroke-miterlimit="10"/>
<path d="M42.4376 36.0944C44.6016 30.1462 52.2585 25.7177 50.5942 20.1142C48.9294 14.5106 41.7719 17.0582 41.6057 23.0922C41.4391 29.1265 38.2764 29.1265 36.9449 27.9366C35.6131 26.747 36.2791 21.4785 39.2752 18.0794C42.2713 14.6805 46.7658 6.69279 43.1037 2.95364C39.4413 -0.785262 33.6283 4.14324 33.7819 14.3405C33.8638 19.7889 34.2813 22.1565 31.6177 23.0922C28.9544 24.0278 28.2886 20.3107 28.9544 16.476C29.5378 13.1153 28.274 11.1506 26.4085 10.9592C24.6109 11.0761 23.2789 13.1153 23.8624 16.476C24.5281 20.311 23.8624 24.0278 21.1988 23.0922C18.5357 22.1568 18.8058 19.7845 19.0349 14.3405C19.4233 5.10658 13.3755 -0.785262 9.71337 2.95364C6.05104 6.69254 10.5458 14.6802 13.5419 18.0794C16.5379 21.4785 17.204 26.747 15.8722 27.9366C14.5404 29.1265 11.3777 29.1265 11.2115 23.0922C11.0451 17.0582 3.88712 14.5103 2.22257 20.1142C0.55803 25.7177 8.21522 30.1462 10.3794 36.0944C12.5431 42.0426 5.71827 51.05 12.5431 59.2078C18.0755 65.8203 23.9651 65.2862 26.4088 65.3175C28.8183 65.3487 34.7416 65.8203 40.274 59.2078C47.0985 51.0503 40.2737 42.0426 42.4376 36.0944Z" fill="#CDE9DB" stroke="black" stroke-width="2" stroke-miterlimit="10"/>
<path d="M26.3949 25.9141C15.2777 26.3389 11.5443 35.0062 12.7095 38.7453C13.8746 42.484 17.7864 43.4189 20.6994 41.5495C23.6127 39.68 24.823 38.8304 26.3949 38.8304C27.967 38.8304 29.1772 39.68 32.0902 41.5495C35.0035 43.4189 38.9153 42.484 40.0804 38.7453C41.2458 35.0062 37.5122 26.3389 26.3949 25.9141Z" fill="#EDF4F4" stroke="black" stroke-width="2" stroke-miterlimit="10"/>
<path d="M17.5249 39.5225C18.9294 39.5225 20.068 38.3599 20.068 36.9259C20.068 35.4919 18.9294 34.3293 17.5249 34.3293C16.1205 34.3293 14.9819 35.4919 14.9819 36.9259C14.9819 38.3599 16.1205 39.5225 17.5249 39.5225Z" fill="black"/>
<path d="M26.4082 35.5735C27.8127 35.5735 28.9513 34.4111 28.9513 32.9772C28.9513 31.5433 27.8127 30.3809 26.4082 30.3809C25.0037 30.3809 23.8652 31.5433 23.8652 32.9772C23.8652 34.4111 25.0037 35.5735 26.4082 35.5735Z" fill="black"/>
<path d="M35.0272 40.2693C36.4317 40.2693 37.5703 39.1068 37.5703 37.6729C37.5703 36.2389 36.4317 35.0764 35.0272 35.0764C33.6228 35.0764 32.4842 36.2389 32.4842 37.6729C32.4842 39.1068 33.6228 40.2693 35.0272 40.2693Z" fill="black"/>
<path d="M35.7187 51.3134C32.8633 51.2038 31.7055 52.109 27.1546 52.2775C23.0834 52.2775 21.4461 51.2038 18.5907 51.3134C15.5826 51.4286 14.6928 54.5059 18.103 56.6824C20.6005 58.2762 24.6052 58.609 26.5712 58.6735V58.6848C26.5712 58.6848 26.7854 58.6907 27.1549 58.6865C27.5241 58.6907 27.7385 58.6848 27.7385 58.6848V58.6735C29.7044 58.6093 33.7089 58.2762 36.2065 56.6824C39.6168 54.5059 38.727 51.4286 35.7187 51.3134Z" fill="#D36E6E" stroke="black" stroke-width="2" stroke-miterlimit="10"/>
<path d="M19.5206 57.4018C19.5206 57.4018 20.9218 55.4121 23.4187 55.4121C25.9154 55.4121 26.6923 55.8087 26.6923 55.8087C26.6923 55.8087 29.4111 54.7324 31.7971 55.4121C34.1833 56.0919 33.9055 60.0006 34.2388 63.0032C34.5715 66.0058 36.1806 68.9515 35.7365 70.5943C35.2928 72.2374 29.0785 75.1828 26.6371 68.6115C24.1958 62.0401 23.0307 58.1313 21.643 57.9614C20.256 57.7916 19.5206 57.4018 19.5206 57.4018Z" fill="#F49898" stroke="black" stroke-width="2" stroke-miterlimit="10"/>
</svg>
