<svg width="61" height="87" viewBox="0 0 61 87" fill="none" xmlns="http://www.w3.org/2000/svg">
<path d="M42.3832 52.5536C42.3832 52.5536 47.2466 55.0916 50.3452 48.2135C53.4434 41.3364 55.9573 37.5299 58.6382 39.5183C61.319 41.5068 57.8516 50.775 51.0175 54.08C45.7708 56.6175 41.0579 54.8247 41.0579 54.8247L42.3832 52.5536Z" fill="#F1BDBC" stroke="black" stroke-width="2" stroke-miterlimit="10"/>
<path d="M18.1631 52.5536C18.1631 52.5536 13.2995 55.0916 10.2012 48.2135C7.10307 41.3364 4.58909 37.5299 1.908 39.5183C-0.773082 41.5068 2.69454 50.775 9.52846 54.08C14.7754 56.6175 19.4886 54.8247 19.4886 54.8247L18.1631 52.5536Z" fill="#F1BDBC" stroke="black" stroke-width="2" stroke-miterlimit="10"/>
<path d="M51.4374 2.11172C48.9544 0.935854 44.3236 4.36539 45.9819 11.6721C47.6399 18.979 46.6587 20.9169 44.5204 21.0662C42.3822 21.2152 42.3565 17.7857 43.3185 14.0576C44.2808 10.33 44.077 7.69369 41.7858 7.62456C39.4946 7.55519 38.1465 10.479 38.8766 13.9086C39.607 17.3384 39.6142 21.4383 36.9233 22.1104C32.7423 23.1542 32.4504 18.3821 34.0638 14.8033C36.1715 10.128 33.8998 4.00824 30.1796 3.75233C26.4592 4.00824 24.1874 10.128 26.2952 14.8033C27.9084 18.3821 27.6164 23.1539 23.4355 22.1104C20.7445 21.4383 20.7517 17.3384 21.4821 13.9086C22.2125 10.479 20.8643 7.55519 18.5732 7.62456C16.2822 7.69369 16.0779 10.33 17.0402 14.0576C18.0025 17.7857 17.9768 21.2152 15.8383 21.0662C13.7001 20.9169 12.7188 18.9787 14.3771 11.6721C16.0354 4.36539 11.4046 0.935854 8.92154 2.11172C6.43877 3.28733 6.58474 5.85672 7.89924 10.1807C9.21349 14.5052 8.77556 19.1283 8.92154 30.1628C9.06751 41.1968 16.0781 48.9506 18.2999 54.17C20.522 59.3887 21.1901 68.4846 15.8383 71.1689C10.4867 73.853 9.94408 78.6246 10.6742 80.4143C11.4046 82.2032 15.2018 82.0544 15.0558 79.6689C14.9099 77.2828 16.0781 74.5985 17.3926 74.1511C18.7069 73.7042 19.7294 75.1953 18.2999 80.265C16.8704 85.3349 21.774 86.8262 23.4352 84.2914C25.0962 81.7566 22.0665 80.5631 22.0665 76.6867C22.0665 72.8098 26.4479 72.5112 27.1782 74.4497C27.9083 76.3881 24.8448 79.1838 27.0359 80.5261C29.2267 81.8681 31.2113 81.7877 33.4019 80.4457C35.5927 79.1036 32.4501 76.3881 33.1803 74.4497C33.9104 72.5112 38.292 72.8098 38.292 76.6867C38.292 80.5631 35.2621 81.7568 36.923 84.2914C38.5842 86.8262 43.4878 85.3349 42.0586 80.265C40.6291 75.1951 41.6516 73.704 42.9659 74.1511C44.2803 74.5985 45.4486 77.2826 45.3026 79.6689C45.1567 82.0544 48.9539 82.2032 49.6841 80.4143C50.4144 78.6246 49.8718 73.853 44.52 71.1689C39.1681 68.4848 39.8365 59.3887 42.0586 54.17C44.2803 48.9506 51.291 41.1966 51.437 30.1628C51.5829 19.1283 51.1448 14.5052 52.4593 10.1807C53.7742 5.85672 53.9202 3.28733 51.4374 2.11172Z" fill="#E5D8CC" stroke="black" stroke-width="2" stroke-miterlimit="10"/>
<path d="M41.2678 23.5341C38.344 25.514 39.2689 27.7986 36.1959 29.779C33.123 31.7586 30.1798 31.2515 30.1798 31.2515C30.1798 31.2515 27.2363 31.7586 24.1631 29.779C21.0902 27.7988 22.015 25.5142 19.0912 23.5341C16.1674 21.5539 13.0643 23.991 14.002 25.9711C14.9396 27.9508 13.9596 37.5464 16.794 42.7759C19.6283 48.0048 30.1798 47.1419 30.1798 47.1419C30.1798 47.1419 40.731 48.005 43.5653 42.7759C46.3998 37.5464 45.4199 27.9508 46.357 25.9711C47.2946 23.991 44.1919 21.5537 41.2678 23.5341Z" fill="#F1BDBC" stroke="black" stroke-width="2" stroke-miterlimit="10"/>
<path d="M38.5215 42.7756C39.9222 42.7756 41.0576 40.1957 41.0576 37.0131C41.0576 33.8305 39.9222 31.2505 38.5215 31.2505C37.1209 31.2505 35.9855 33.8305 35.9855 37.0131C35.9855 40.1957 37.1209 42.7756 38.5215 42.7756Z" fill="black"/>
<path d="M21.6271 42.7756C23.0278 42.7756 24.1632 40.1957 24.1632 37.0131C24.1632 33.8305 23.0278 31.2505 21.6271 31.2505C20.2265 31.2505 19.0911 33.8305 19.0911 37.0131C19.0911 40.1957 20.2265 42.7756 21.6271 42.7756Z" fill="black"/>
</svg>
