<svg width="73" height="101" viewBox="0 0 73 101" fill="none" xmlns="http://www.w3.org/2000/svg">
<path d="M32.6711 76.3672C32.6711 76.3672 31.8958 80.5593 32.6711 87.9239C33.4468 95.2882 32.7834 97.8943 29.8414 99.1406C26.8993 100.387 22.5712 98.9138 24.6799 95.8549C26.7886 92.7957 29.4515 92.482 29.3408 88.7301C29.2296 84.9779 27.7504 81.126 28.5456 77.3871C29.3408 73.648 32.6711 76.3672 32.6711 76.3672Z" fill="#F1BDBC" stroke="black" stroke-width="2" stroke-miterlimit="10"/>
<path d="M39.2888 76.6734C39.2888 76.6734 40.0643 80.8658 39.2888 88.2301C38.5131 95.5947 39.1765 98.2006 42.1186 99.4468C45.0604 100.693 49.3887 99.2201 47.28 96.1609C45.1715 93.102 42.5085 92.7882 42.6194 89.0363C42.7301 85.2842 44.2097 81.4321 43.4146 77.6934C42.6196 73.954 39.2888 76.6734 39.2888 76.6734Z" fill="#F1BDBC" stroke="black" stroke-width="2" stroke-miterlimit="10"/>
<path d="M40.7371 54.9679C40.5708 48 36.2424 54.9679 36.2424 54.9679C36.2424 54.9679 31.9148 48 31.7482 54.9679C31.5816 61.9359 20.0961 64.8251 21.5941 72.6101C23.0922 80.3947 36.2424 81.6848 36.2424 81.6848C36.2424 81.6848 49.3929 80.3947 50.891 72.6101C52.3892 64.8251 40.9033 61.9361 40.7371 54.9679Z" fill="#EDF4F4" stroke="black" stroke-width="2" stroke-miterlimit="10"/>
<path d="M65.8659 1.92447C56.9624 0.409102 55.4789 13.6113 58.2344 20.7337C60.9902 27.8561 53.9949 33.9553 50.1794 27.1626C47.2719 21.9863 39.6884 21.6306 36.2422 21.7544C32.7964 21.6306 25.2129 21.9863 22.3056 27.1626C18.4899 33.9553 11.4949 27.8561 14.2501 20.7337C17.0059 13.6113 15.5221 0.409102 6.61912 1.92447C-2.28414 3.43934 0.68361 19.4549 6.61912 28.3282C12.5546 37.2015 17.4301 30.9091 18.4899 34.4882C19.5494 38.0675 16.7939 43.2789 15.3102 49.1136C13.8725 54.766 18.6015 62.8487 36.2422 62.3722C53.883 62.8487 58.6121 54.766 57.1747 49.1136C55.6907 43.2789 52.9352 38.0675 53.9949 34.4882C55.0549 30.9089 59.9307 37.2015 65.8659 28.3282C71.8012 19.4549 74.7689 3.43934 65.8659 1.92447Z" fill="#EDF4F4" stroke="black" stroke-width="2" stroke-miterlimit="10"/>
<path d="M50.4058 37.8983C50.4058 41.7995 47.3088 44.9619 43.4876 44.9619H29.1929C25.3718 44.9619 22.2744 41.7995 22.2744 37.8983C22.2744 33.9974 25.3718 30.835 29.1929 30.835H43.4876C47.3088 30.835 50.4058 33.9974 50.4058 37.8983Z" fill="#F1BDBC" stroke="black" stroke-width="2" stroke-miterlimit="10"/>
<path d="M28.5454 40.8547C30.1082 40.8547 31.3751 39.5613 31.3751 37.9657C31.3751 36.3701 30.1082 35.0767 28.5454 35.0767C26.9826 35.0767 25.7157 36.3701 25.7157 37.9657C25.7157 39.5613 26.9826 40.8547 28.5454 40.8547Z" fill="black"/>
<path d="M43.4147 40.8547C44.9775 40.8547 46.2444 39.5613 46.2444 37.9657C46.2444 36.3701 44.9775 35.0767 43.4147 35.0767C41.8519 35.0767 40.585 36.3701 40.585 37.9657C40.585 39.5613 41.8519 40.8547 43.4147 40.8547Z" fill="black"/>
<path d="M63.4063 17.8469C63.4063 17.8469 67.5964 14.9297 67.533 10.6517C67.4696 6.37356 63.6601 5.20703 62.1999 7.86463C60.7394 10.522 63.4063 17.8469 63.4063 17.8469Z" fill="#F1BDBC" stroke="black" stroke-width="2" stroke-miterlimit="10"/>
<path d="M9.46975 17.8469C9.46975 17.8469 5.2795 14.9297 5.34312 10.6517C5.40627 6.37356 9.21622 5.20703 10.6762 7.86463C12.1362 10.522 9.46975 17.8469 9.46975 17.8469Z" fill="#F1BDBC" stroke="black" stroke-width="2" stroke-miterlimit="10"/>
</svg>
