<svg width="52" height="90" viewBox="0 0 52 90" fill="none" xmlns="http://www.w3.org/2000/svg">
<path d="M12.2789 50.0319C12.2789 50.0319 11.724 49.5573 11.2806 58.0551C10.8366 66.5526 12.5014 77.2031 11.2806 79.0158C10.0597 80.8288 7.95095 80.552 8.06235 73.2691C8.17327 65.9859 8.453 49.072 10.6438 46.1988C12.8342 43.3262 12.2789 50.0319 12.2789 50.0319Z" fill="#F1BDBC" stroke="black" stroke-width="2" stroke-miterlimit="10"/>
<path d="M38.6485 48.4853C38.6485 48.4853 39.2029 48.011 39.6465 56.5084C40.0902 65.0059 38.4257 75.6563 39.6465 77.469C40.8674 79.2819 42.9761 79.0052 42.8647 71.7223C42.7538 64.4394 42.4741 47.5254 40.2835 44.6526C38.0929 41.7797 38.6485 48.4853 38.6485 48.4853Z" fill="#F1BDBC" stroke="black" stroke-width="2" stroke-miterlimit="10"/>
<path d="M36.358 27.2229C36.358 27.2229 40.7975 28.0603 42.5454 21.8779C44.2935 15.6955 42.392 9.57709 43.9667 7.7928C45.542 6.00851 51.8672 4.90372 50.8686 13.9112C49.8696 22.9187 45.7141 28.8949 40.4677 29.5183L36.358 27.2229Z" fill="#EFE1BD" stroke="black" stroke-width="2" stroke-miterlimit="10"/>
<path d="M15.6166 27.2229C15.6166 27.2229 11.1769 28.0603 9.42925 21.8779C7.68139 15.6955 9.58292 9.57709 8.00793 7.7928C6.43294 6.00851 0.107762 4.90372 1.1063 13.9112C2.10507 22.9187 6.26079 28.8949 11.507 29.5183L15.6166 27.2229Z" fill="#EFE1BD" stroke="black" stroke-width="2" stroke-miterlimit="10"/>
<path d="M26.1197 23.8404L27.7388 23.5304C27.7388 23.5304 26.7969 20.5029 26.6464 15.7298C26.4961 10.9568 26.6464 9.84178 26.6464 9.84178L26.1197 9.53024V9.4187L26.025 9.4746L25.9307 9.4187V9.53024L25.4039 9.84178C25.4039 9.84178 25.5547 10.9568 25.4039 15.7298C25.2534 20.5031 24.3115 23.5304 24.3115 23.5304L25.9307 23.8404V23.8762L26.025 23.8581L26.1197 23.8762V23.8404Z" fill="#EFE1BD" stroke="black" stroke-width="2" stroke-miterlimit="10"/>
<path d="M20.0537 24.915C20.0537 24.915 20.8071 21.1467 20.355 18.2243C19.9029 15.3017 19.7145 14.5205 19.7145 14.5205L20.4996 14.2256C20.4996 14.2256 21.2213 16.1476 21.5226 18.9548C21.8242 21.7622 22.3889 23.608 22.9161 24.223C23.4436 24.8378 20.0537 24.915 20.0537 24.915Z" fill="#EFE1BD" stroke="black" stroke-width="2" stroke-miterlimit="10"/>
<path d="M19.1213 24.9952C19.1213 24.9952 16.1105 15.3176 16.8757 5.91528H15.6518C15.6518 5.91528 15.2186 20.8981 17.3869 25.2822H18.8111L19.1213 24.9952Z" fill="#EFE1BD" stroke="black" stroke-width="2" stroke-miterlimit="10"/>
<path d="M16.3292 6.34839C17.5527 6.34839 18.5445 5.33574 18.5445 4.08656C18.5445 2.83737 17.5527 1.82471 16.3292 1.82471C15.1057 1.82471 14.1139 2.83737 14.1139 4.08656C14.1139 5.33574 15.1057 6.34839 16.3292 6.34839Z" fill="#C2DBDB" stroke="black" stroke-width="2" stroke-miterlimit="10"/>
<path d="M19.7147 15.7302C20.9381 15.7302 21.9298 14.7176 21.9298 13.4685C21.9298 12.2194 20.9381 11.2068 19.7147 11.2068C18.4914 11.2068 17.4996 12.2194 17.4996 13.4685C17.4996 14.7176 18.4914 15.7302 19.7147 15.7302Z" fill="#C2DBDB" stroke="black" stroke-width="2" stroke-miterlimit="10"/>
<path d="M32.2086 24.915C32.2086 24.915 31.4554 21.1467 31.9075 18.2243C32.3593 15.3017 32.5478 14.5205 32.5478 14.5205L31.763 14.2256C31.763 14.2256 31.0412 16.1476 30.7397 18.9548C30.4384 21.7622 29.8737 23.608 29.3462 24.223C28.819 24.8378 32.2086 24.915 32.2086 24.915Z" fill="#EFE1BD" stroke="black" stroke-width="2" stroke-miterlimit="10"/>
<path d="M32.548 15.7302C33.7713 15.7302 34.763 14.7176 34.763 13.4685C34.763 12.2194 33.7713 11.2068 32.548 11.2068C31.3246 11.2068 30.3329 12.2194 30.3329 13.4685C30.3329 14.7176 31.3246 15.7302 32.548 15.7302Z" fill="#C2DBDB" stroke="black" stroke-width="2" stroke-miterlimit="10"/>
<path d="M33.5662 24.9952C33.5662 24.9952 36.5771 15.3176 35.8114 5.91528H37.0356C37.0356 5.91528 37.469 20.8981 35.3006 25.2822H33.8764" fill="#EFE1BD"/>
<path d="M33.5662 24.9952C33.5662 24.9952 36.5771 15.3176 35.8114 5.91528H37.0356C37.0356 5.91528 37.469 20.8981 35.3006 25.2822H33.8764" stroke="black" stroke-width="2" stroke-miterlimit="10"/>
<path d="M36.3579 6.34839C37.5813 6.34839 38.5732 5.33574 38.5732 4.08656C38.5732 2.83737 37.5813 1.82471 36.3579 1.82471C35.1344 1.82471 34.1426 2.83737 34.1426 4.08656C34.1426 5.33574 35.1344 6.34839 36.3579 6.34839Z" fill="#C2DBDB" stroke="black" stroke-width="2" stroke-miterlimit="10"/>
<path d="M26.0253 10.7261C26.9716 10.7261 27.7388 9.94274 27.7388 8.97645C27.7388 8.01015 26.9716 7.22681 26.0253 7.22681C25.0789 7.22681 24.3118 8.01015 24.3118 8.97645C24.3118 9.94274 25.0789 10.7261 26.0253 10.7261Z" fill="#C2DBDB" stroke="black" stroke-width="2" stroke-miterlimit="10"/>
<path d="M35.4933 61.1221C38.5055 55.3389 47.5648 44.608 44.3274 33.6141C40.9181 22.0368 26.0256 23.02 26.0256 23.02C26.0256 23.02 11.133 22.0366 7.72351 33.6141C4.56417 44.343 13.1155 54.8212 16.3296 60.6953C16.3296 60.6953 18.8354 69.1804 15.617 75.9307C12.3986 82.6809 8.09087 84.0311 10.5386 87.1812C12.9861 90.3313 19.5981 88.0811 20.6264 81.3308C21.6372 74.6947 24.9053 63.5371 26.0256 62.361C27.1458 63.5371 30.2994 74.6945 31.3104 81.3308C32.3388 88.0811 38.9503 90.3313 41.3983 87.1812C43.8458 84.0308 39.5381 82.6809 36.3199 75.9307C33.5277 70.0748 35.0422 62.9169 35.4933 61.1221Z" fill="#EFE1BD" stroke="black" stroke-width="2" stroke-miterlimit="10"/>
<path d="M16.6178 48.03C18.3519 48.03 19.7577 44.7436 19.7577 40.6896C19.7577 36.6356 18.3519 33.3491 16.6178 33.3491C14.8837 33.3491 13.4779 36.6356 13.4779 40.6896C13.4779 44.7436 14.8837 48.03 16.6178 48.03Z" fill="black"/>
<path d="M35.4331 48.03C37.1671 48.03 38.5728 44.7436 38.5728 40.6896C38.5728 36.6356 37.1671 33.3491 35.4331 33.3491C33.6991 33.3491 32.2935 36.6356 32.2935 40.6896C32.2935 44.7436 33.6991 48.03 35.4331 48.03Z" fill="black"/>
</svg>
