<svg width="47" height="102" viewBox="0 0 47 102" fill="none" xmlns="http://www.w3.org/2000/svg">
<path d="M40.1248 50.6408C40.1248 50.6408 43.0518 47.926 40.6103 41.7069C38.1691 35.4878 29.1803 29.143 19.3035 29.8227C9.42692 30.5025 6.7636 33.2369 6.4306 35.4386C6.09759 37.6403 4.21096 37.9011 3.10127 36.2977C1.99157 34.6944 0.326786 30.8422 3.10127 29.256C5.87599 27.6698 18.0332 22.6548 31.2105 28.2066C44.3879 33.7582 48.88 47.2708 41.5824 55.0886L40.1248 50.6408Z" fill="#EDF4F4" stroke="black" stroke-width="2" stroke-miterlimit="10"/>
<path d="M17.1343 74.6221C17.1343 74.6221 16.0316 79.9147 16.5341 87.1746C17.0369 94.4346 18.3298 98.3951 15.313 99.8617C12.2963 101.328 6.69425 101.402 7.84308 97.8813C8.99215 94.3615 14.0204 95.0214 13.5892 91.208C13.158 87.3945 11.9424 77.1923 13.3404 73.5666C14.7385 69.9412 18.1142 69.9412 18.1142 69.9412L17.1343 74.6221Z" fill="#EDF4F4" stroke="black" stroke-width="2" stroke-miterlimit="10"/>
<path d="M30.3645 74.6221C30.3645 74.6221 31.4672 79.9147 30.9647 87.1746C30.4619 94.4346 29.169 98.3951 32.1858 99.8617C35.2025 101.328 40.8045 101.402 39.6555 97.8813C38.5066 94.3615 33.4782 95.0214 33.9094 91.208C34.3403 87.3945 35.5559 77.1923 34.1581 73.5666C32.7601 69.9412 29.3844 69.9412 29.3844 69.9412L30.3645 74.6221Z" fill="#EDF4F4" stroke="black" stroke-width="2" stroke-miterlimit="10"/>
<path d="M34.9507 36.2977C34.4513 31.5222 35.9495 26.9796 39.4452 20.3286C42.9409 13.6774 46.7693 5.85982 42.6079 2.63054C38.4464 -0.598737 31.9543 4.66998 31.2886 14.8669C30.6228 25.0639 31.9543 33.0204 30.6228 34.7356C29.2913 36.4507 27.4601 35.6352 24.2974 36.2977C21.1347 35.6352 19.3035 36.4507 17.972 34.7356C16.6402 33.0204 17.972 25.0639 17.3062 14.8669C16.6405 4.66974 10.1484 -0.598737 5.98694 2.63054C1.82546 5.85982 5.65417 13.6774 9.14964 20.3286C12.6454 26.9798 14.1433 31.5222 13.6441 36.2977C13.1447 41.0733 10.315 45.4581 7.31872 53.6364C4.32239 61.8148 2.15847 71.6303 8.98326 75.0295C15.8081 78.4284 24.2976 78.9934 24.2976 78.9934C24.2976 78.9934 32.787 78.4284 39.612 75.0295C46.4368 71.6303 44.2729 61.8148 41.2766 53.6364C38.2802 45.4581 35.4501 41.0733 34.9507 36.2977Z" fill="#F1BDBC" stroke="black" stroke-width="2" stroke-miterlimit="10"/>
<path d="M31.7731 40.3391C27.0441 38.6423 24.2974 42.5562 24.2974 42.5562C24.2974 42.5562 21.5508 38.6423 16.8218 40.3391C12.0927 42.0356 10.6445 48.4546 13.6612 51.8282C16.6779 55.2019 23.3695 54.9082 24.2974 57.7683C25.2254 54.9085 31.9169 55.2016 34.9337 51.8282C37.9504 48.4549 36.5022 42.0356 31.7731 40.3391Z" fill="#EDF4F4" stroke="black" stroke-width="2" stroke-miterlimit="10"/>
<path d="M17.7221 49.9961C19.285 49.9961 20.552 48.7025 20.552 47.1068C20.552 45.5111 19.285 44.2175 17.7221 44.2175C16.1592 44.2175 14.8922 45.5111 14.8922 47.1068C14.8922 48.7025 16.1592 49.9961 17.7221 49.9961Z" fill="black"/>
<path d="M30.7892 49.9958C32.352 49.9958 33.6189 48.7024 33.6189 47.1069C33.6189 45.5114 32.352 44.218 30.7892 44.218C29.2264 44.218 27.9595 45.5114 27.9595 47.1069C27.9595 48.7024 29.2264 49.9958 30.7892 49.9958Z" fill="black"/>
<path d="M9.9463 47.1069C9.9463 47.1069 4.87704 48.5174 2.54673 55.8819C0.216176 63.2462 0.771264 76.7291 2.54673 82.7342C4.32219 88.7395 3.6569 89.5553 3.43458 90.9037C3.2125 92.2514 4.54428 94.1778 6.87459 93.2709C9.20514 92.3646 11.3535 89.7585 9.9463 88.626C8.53913 87.4928 5.02109 81.045 4.17238 70.6159C3.32342 60.1873 5.54305 54.409 7.8736 51.803L9.9463 47.1069Z" fill="#EDF4F4" stroke="black" stroke-width="2" stroke-miterlimit="10"/>
<path d="M16.8477 90.7296C16.7687 89.9522 16.6883 89.1244 16.6158 88.243C15.2715 88.4397 14.0891 88.2923 13.2471 88.0935C13.3517 89.1077 13.4538 90.0125 13.5371 90.7455C14.7275 91.0078 15.9373 90.9017 16.8477 90.7296Z" fill="#BCB1B1" stroke="black" stroke-width="2" stroke-miterlimit="10"/>
<path d="M16.5219 79.725C14.8741 79.6554 13.5767 79.2105 12.6898 78.7783C12.6833 79.6186 12.7008 80.4964 12.7366 81.3867C13.9923 81.8982 15.3709 82.0473 16.4182 82.0691C16.4371 81.2298 16.4743 80.4466 16.5219 79.725Z" fill="#BCB1B1" stroke="black" stroke-width="2" stroke-miterlimit="10"/>
<path d="M17.2337 95.2139C17.2107 94.5049 17.1466 93.718 17.063 92.8516C15.4023 93.1994 14.2175 92.9193 13.4694 92.5754C13.2223 93.3063 12.6795 93.8047 12.0168 94.2344H12.0171C13.855 95.4137 15.8878 95.4105 17.2337 95.2139Z" fill="#BCB1B1" stroke="black" stroke-width="2" stroke-miterlimit="10"/>
<path d="M12.8519 83.5322C12.9073 84.3676 12.9734 85.1924 13.0442 85.9859C14.2206 86.305 15.5003 86.3259 16.4799 86.267C16.4359 85.4275 16.4122 84.6171 16.4054 83.8423C14.9392 84.0328 13.7092 83.806 12.8519 83.5322Z" fill="#BCB1B1" stroke="black" stroke-width="2" stroke-miterlimit="10"/>
<path d="M30.6514 90.7296C30.7304 89.9522 30.8105 89.1244 30.883 88.243C32.2275 88.4397 33.4097 88.2923 34.2517 88.0935C34.1471 89.1077 34.0453 90.0125 33.9617 90.7455C32.7713 91.0078 31.5615 90.9017 30.6514 90.7296Z" fill="#BCB1B1" stroke="black" stroke-width="2" stroke-miterlimit="10"/>
<path d="M30.9771 79.725C32.6248 79.6554 33.9223 79.2105 34.8092 78.7783C34.8157 79.6186 34.7981 80.4964 34.7624 81.3867C33.5064 81.8982 32.1279 82.0473 31.0808 82.0691C31.0616 81.2298 31.0244 80.4466 30.9771 79.725Z" fill="#BCB1B1" stroke="black" stroke-width="2" stroke-miterlimit="10"/>
<path d="M30.265 95.2139C30.2881 94.5049 30.3522 93.718 30.4357 92.8516C32.0964 93.1994 33.281 92.9193 34.0294 92.5754C34.2765 93.3063 34.8191 93.8047 35.4819 94.2344H35.4817C33.6438 95.4137 31.611 95.4105 30.265 95.2139Z" fill="#BCB1B1" stroke="black" stroke-width="2" stroke-miterlimit="10"/>
<path d="M34.6469 83.5322C34.5912 84.3676 34.5255 85.1924 34.4546 85.9859C33.2782 86.305 31.9985 86.3259 31.0187 86.267C31.0626 85.4275 31.0864 84.6171 31.0931 83.8423C32.5596 84.0328 33.7896 83.806 34.6469 83.5322Z" fill="#BCB1B1" stroke="black" stroke-width="2" stroke-miterlimit="10"/>
</svg>
