<svg width="46" height="84" viewBox="0 0 46 84" fill="none" xmlns="http://www.w3.org/2000/svg">
<path d="M18.7982 62.2669C18.7982 62.2669 16.2624 77.5866 14.5714 80.392C12.8807 83.1967 8.5637 82.5513 7.12941 82.2809C5.69512 82.0103 4.12517 79.5287 7.12941 78.4499C10.1336 77.3714 11.5552 78.0185 12.5353 74.8897C13.5151 71.761 15.4343 61.8354 15.4343 61.8354L18.7982 62.2669Z" fill="#C2DBDB" stroke="black" stroke-width="2" stroke-miterlimit="10"/>
<path d="M25.9844 62.2669C25.9844 62.2669 28.5202 77.5866 30.2112 80.392C31.9021 83.1967 36.2191 82.5513 37.6532 82.2809C39.0877 82.0103 40.6577 79.5287 37.6532 78.4499C34.6492 77.3714 33.2274 78.0185 32.2476 74.8897C31.2678 71.761 29.3485 61.8354 29.3485 61.8354L25.9844 62.2669Z" fill="#C2DBDB" stroke="black" stroke-width="2" stroke-miterlimit="10"/>
<path d="M32.1794 47.577C32.1794 47.577 35.4951 46.7313 38.1366 49.4285C40.7785 52.1259 41.0268 59.0078 34.3508 61.0154L33.6985 57.3048C33.6985 57.3048 37.2946 56.2258 36.817 53.3126C36.3395 50.3995 32.9571 50.8314 32.9571 50.8314L32.1794 47.577Z" fill="#F1BDBC" stroke="black" stroke-width="2" stroke-miterlimit="10"/>
<path d="M13.5919 47.577C13.5919 47.577 10.2762 46.7313 7.63475 49.4285C4.9928 52.1259 4.74454 59.0078 11.4202 61.0154L12.0731 57.3048C12.0731 57.3048 8.47674 56.2258 8.95428 53.3126C9.43181 50.3995 12.8142 50.8314 12.8142 50.8314L13.5919 47.577Z" fill="#F1BDBC" stroke="black" stroke-width="2" stroke-miterlimit="10"/>
<path d="M38.2001 17.7519C34.7966 13.6407 37.9727 11.1639 40.6956 10.0444C43.418 8.92494 43.5106 5.17624 41.5926 3.36255C39.6745 1.5491 34.5699 0.460255 34.6837 6.38569C34.7968 12.3106 32.7556 12.7359 31.7345 10.0444C30.7131 7.3527 29.3206 5.9018 27.3511 6.98992C25.3819 8.07828 25.3819 5.78048 25.042 4.69261C24.7015 3.60449 23.6809 2.57104 22.6598 2.66468C21.6387 2.57104 20.6181 3.60449 20.2779 4.69261C19.9374 5.78048 19.9374 8.07828 17.9682 6.98992C15.999 5.9018 14.606 7.35246 13.5854 10.0444C12.564 12.7359 10.5225 12.3106 10.6361 6.38569C10.7494 0.460255 5.64535 1.5491 3.72727 3.36255C1.8092 5.17599 1.90188 8.9247 4.62402 10.0444C7.34664 11.1639 10.5225 13.6407 7.11999 17.7519C3.71672 21.8632 -0.706705 29.7229 1.67523 35.3535C4.05716 40.9835 10.4095 43.2654 11.6572 43.7495C12.9052 44.2337 14.0389 46.6516 12.2022 51.2462C10.3662 55.8414 9.27504 61.7663 13.4718 63.9428C17.6688 66.1195 22.66 65.2557 22.66 65.2557C22.66 65.2557 27.6513 66.1192 31.848 63.9428C36.0448 61.7663 34.9543 55.8414 33.1176 51.2462C31.2809 46.6516 32.4149 44.2337 33.6629 43.7495C34.9111 43.2654 41.2627 40.9835 43.6449 35.3535C46.0265 29.7229 41.6029 21.8632 38.2001 17.7519Z" fill="#F1BDBC" stroke="black" stroke-width="2" stroke-miterlimit="10"/>
<path d="M36.8173 26.3178C36.8173 29.8138 34.0413 32.6484 30.6167 32.6484H14.3868C10.9622 32.6484 8.18628 29.8138 8.18628 26.3178C8.18628 22.8212 10.9622 19.9868 14.3868 19.9868H30.6167C34.0411 19.9868 36.8173 22.8215 36.8173 26.3178Z" fill="#EDF4F4" stroke="black" stroke-width="2" stroke-miterlimit="10"/>
<path d="M37.827 7.79687C37.827 7.79687 35.103 4.88499 36.9982 3.91771C38.893 2.95019 44.9748 7.45124 37.827 7.79687Z" fill="black"/>
<path d="M7.57876 7.79712C7.57876 7.79712 10.3033 4.88537 8.40803 3.91813C6.51278 2.9509 0.431579 7.4515 7.57876 7.79712Z" fill="black"/>
<path d="M13.5921 29.2246C15.4958 29.2246 17.0391 27.649 17.0391 25.7054C17.0391 23.7619 15.4958 22.1863 13.5921 22.1863C11.6884 22.1863 10.1451 23.7619 10.1451 25.7054C10.1451 27.649 11.6884 29.2246 13.5921 29.2246Z" fill="black"/>
<path d="M17.913 16.6899C18.6984 16.6899 19.335 16.0399 19.335 15.238C19.335 14.4362 18.6984 13.7861 17.913 13.7861C17.1276 13.7861 16.491 14.4362 16.491 15.238C16.491 16.0399 17.1276 16.6899 17.913 16.6899Z" fill="black"/>
<path d="M27.4064 16.6899C28.1918 16.6899 28.8284 16.0399 28.8284 15.238C28.8284 14.4362 28.1918 13.7861 27.4064 13.7861C26.621 13.7861 25.9844 14.4362 25.9844 15.238C25.9844 16.0399 26.621 16.6899 27.4064 16.6899Z" fill="black"/>
<path d="M22.7934 14.9561C23.5788 14.9561 24.2155 14.306 24.2155 13.5042C24.2155 12.7023 23.5788 12.0523 22.7934 12.0523C22.008 12.0523 21.3713 12.7023 21.3713 13.5042C21.3713 14.306 22.008 14.9561 22.7934 14.9561Z" fill="black"/>
<path d="M22.7933 57.6799C23.2869 57.6799 23.687 57.2714 23.687 56.7675C23.687 56.2635 23.2869 55.855 22.7933 55.855C22.2998 55.855 21.8997 56.2635 21.8997 56.7675C21.8997 57.2714 22.2998 57.6799 22.7933 57.6799Z" fill="black"/>
<path d="M30.9038 29.2246C32.8075 29.2246 34.3508 27.649 34.3508 25.7054C34.3508 23.7619 32.8075 22.1863 30.9038 22.1863C29.0001 22.1863 27.4568 23.7619 27.4568 25.7054C27.4568 27.649 29.0001 29.2246 30.9038 29.2246Z" fill="black"/>
</svg>
